<svg width="168" height="168" viewBox="0 0 168 168" fill="none" xmlns="http://www.w3.org/2000/svg">
<g clip-path="url(#clip0_61_2)">
<path d="M46.566 19.1142C9.3269 40.6142 -2.38586 84.3269 19.1141 121.566C40.6141 158.805 84.327 170.518 121.566 149.018C154.709 129.883 167.632 93.1529 154.917 59.0514C153.346 54.8367 151.383 50.6622 149.018 46.566C127.518 9.32695 83.8051 -2.38586 46.566 19.1142Z" fill="url(#paint0_linear_61_2)"/>
<g style="mix-blend-mode:overlay">
<path d="M36.4956 119.85C35.9913 119.939 35.6892 119.699 35.5892 119.132C35.567 119.006 35.5392 118.849 35.5058 118.659C35.5355 118.459 35.5652 118.259 35.5949 118.059C36.0883 115.697 37.3529 113.102 39.3887 110.274C41.4875 107.434 44.4112 104.482 48.1598 101.416C51.4598 98.7547 54.7709 96.1563 58.0931 93.6209C61.4153 91.0855 64.6893 88.4611 67.9151 85.7477C71.4228 82.7896 74.0424 79.9557 75.7742 77.2458C77.4948 74.4729 78.3757 71.913 78.4168 69.5662C78.4392 68.5875 78.3559 67.5624 78.167 66.4909C77.2557 61.3226 74.0268 59.2275 68.4804 60.2055C60.5389 61.6058 53.9147 67.7128 48.6079 78.5266C46.2752 83.3571 45.3534 87.1589 45.8424 89.9321C46.3314 92.7053 48.4037 93.7697 52.0593 93.1251C55.5889 92.5027 59.2595 90.1008 63.0714 85.9194C67.0797 81.3784 68.7949 77.4691 68.217 74.1917C68.0059 72.9942 67.2515 72.2173 65.954 71.8613C65.7427 71.7685 65.6259 71.6592 65.6037 71.5331C65.5592 71.281 65.6946 71.1272 66.0097 71.0716C66.766 70.9382 67.437 71.2423 68.0227 71.9839C68.512 72.5475 68.8289 73.239 68.9734 74.0583C69.6957 78.1551 68.062 82.3424 64.0723 86.6202C60.3754 90.7164 56.4155 93.1368 52.1927 93.8814C46.3941 94.9039 43.017 92.7049 42.0612 87.2845C41.55 84.3852 41.9712 81.614 43.3248 78.9708C45.4905 74.2997 48.9446 70.1164 53.6869 66.4208C56.0784 64.5044 58.4736 62.9772 60.8725 61.8394C63.3233 60.6274 65.8092 59.7991 68.3303 59.3546C72.112 58.6878 75.5098 59.161 78.5237 60.7741C81.875 62.4577 83.8729 65.1274 84.5175 68.783C85.2176 72.7537 83.1334 77.1504 78.2649 81.9731C76.9931 83.2372 75.3338 84.6995 73.2871 86.3601C71.2923 87.9466 68.847 89.7425 65.9512 91.7479C64.6757 92.6226 63.0814 93.7161 61.1682 95.0283C59.255 96.3404 57.0229 97.8713 54.4719 99.6208C51.4501 101.648 48.8584 103.535 46.6967 105.281C44.5239 106.964 42.7497 108.511 41.374 109.924C42.0415 109.286 42.7218 108.906 43.4151 108.784C45.0539 108.495 46.7148 108.332 48.398 108.295C50.1331 108.184 51.8959 108.231 53.6866 108.435C54.9286 108.476 56.1502 108.586 57.3513 108.764C58.5525 108.942 59.7797 109.083 61.0327 109.187C63.9393 109.454 66.4011 109.41 68.4179 109.054C75.7292 107.765 78.9402 104.6 78.0511 99.5574C77.9845 99.1792 77.8863 98.8066 77.7566 98.4395C77.6269 98.0725 77.4341 97.7166 77.1784 97.3717C76.9856 97.0158 76.8096 96.7544 76.6502 96.5875C76.5538 96.4096 76.5056 96.3206 76.5056 96.3206C76.4611 96.0685 76.565 95.9202 76.8171 95.8757C77.1953 95.8091 77.6364 96.2837 78.1404 97.2996C78.3443 97.7185 78.5111 98.1115 78.6408 98.4786C78.7594 98.7826 78.8465 99.0922 78.902 99.4073C79.4577 102.559 78.4136 105.667 75.7698 108.733C73.367 111.691 70.5269 113.459 67.2494 114.037C64.5392 114.515 60.4351 114.459 54.9371 113.869C52.1677 113.642 49.7412 113.517 47.6576 113.495C45.6371 113.461 43.9335 113.567 42.5469 113.811C40.3409 114.2 38.9042 115.266 38.2366 117.008C37.6431 118.803 37.0628 119.75 36.4956 119.85ZM101.854 109.203C91.8327 110.97 86.2108 108.387 84.9883 101.454C84.3771 97.987 85.6324 94.9712 88.7544 92.4061C91.3759 90.3192 94.5774 88.9423 98.3591 88.2755L99.8718 88.0088C102.185 87.8608 104.278 88.3042 106.15 89.3388C108.382 90.57 109.681 92.2255 110.048 94.3054C110.359 96.0702 110.136 97.0193 109.38 97.1526C109.128 97.1971 108.98 97.0933 108.935 96.8412L109.085 96.0348C109.26 95.5492 109.297 95.0227 109.197 94.4555C108.808 92.2495 107.457 90.6681 105.143 89.7113C103.168 88.8249 101.014 88.5873 98.6815 88.9985C95.7823 89.5098 93.3537 90.8478 91.3959 93.0127C89.4603 95.3036 88.7537 97.9302 89.276 100.892C89.7761 103.729 91.2792 105.803 93.7852 107.116C96.0577 108.21 98.6751 108.496 101.637 107.974C107.247 106.984 112.035 103.736 116.003 98.2269C119.856 92.8034 121.277 87.224 120.265 81.4884C119.754 78.5892 118.483 76.5388 116.451 75.3373C114.483 74.1247 112.017 73.7796 109.055 74.3019C106.156 74.8131 103.635 75.8101 101.492 77.2927C99.4407 81.8785 97.7535 84.2881 96.4299 84.5215C95.7996 84.6326 95.4178 84.31 95.2844 83.5537C95.2178 83.1755 95.3643 82.5323 95.724 81.6241C96.4583 80.2598 97.63 78.9809 99.2392 77.7874C99.9327 76.5603 100.702 75.0274 101.548 73.1886C102.341 71.424 103 69.8132 103.523 68.3563C104.109 66.8882 104.58 65.5054 104.936 64.2079C105.926 60.9789 106.575 58.9473 106.883 58.1131C108.029 55.7665 109.516 54.4321 111.344 54.1098C112.163 53.9653 113.205 53.9766 114.469 54.1436C115.722 54.2475 117.197 54.5073 118.895 54.9227C122.291 55.7537 124.809 56.0247 126.447 55.7357C128.401 55.3912 129.994 54.6555 131.225 53.5286C132.686 52.2312 133.249 50.6371 132.916 48.7463C132.727 47.6748 132.299 46.9054 131.632 46.4382L130.614 45.6428C130.57 45.3907 130.673 45.2424 130.926 45.198C131.619 45.0757 132.292 45.5745 132.944 46.6942C133.489 47.573 133.828 48.3905 133.961 49.1468C134.428 51.794 133.772 54.1518 131.992 56.2203C130.39 58.1924 128.234 59.4174 125.524 59.8953C124.515 60.0731 123.321 60.1212 121.942 60.0394C120.626 59.9465 119.125 59.7239 117.438 59.3714C114.127 58.6554 111.968 58.3864 110.959 58.5642C109.068 58.8976 107.572 60.9161 106.471 64.6196C105.918 66.2768 105.313 68.008 104.657 69.8135C104 71.6189 103.203 73.5466 102.265 75.5967L102.126 75.9137C104.806 74.5312 107.533 73.5954 110.307 73.1064C112.323 72.7508 114.185 72.6176 115.89 72.7068C117.658 72.7849 119.282 73.1485 120.761 73.7975C124.32 75.1845 126.433 77.7689 127.1 81.5506C127.311 82.7481 127.381 84.0679 127.311 85.5101C126.464 93.9778 120.695 100.876 110.002 106.206C107.091 107.759 104.375 108.758 101.854 109.203Z" fill="white"/>
</g>
</g>
<defs>
<linearGradient id="paint0_linear_61_2" x1="46.566" y1="19.1141" x2="121.566" y2="149.018" gradientUnits="userSpaceOnUse">
<stop stop-color="#25259D"/>
<stop offset="0.364583" stop-color="#C545CE" stop-opacity="0.9"/>
<stop offset="0.630208" stop-color="#C545CE" stop-opacity="0.75"/>
<stop offset="1" stop-color="#25259D" stop-opacity="0.5"/>
</linearGradient>
<clipPath id="clip0_61_2">
<rect width="168" height="168" fill="white"/>
</clipPath>
</defs>
</svg>
